
<?xml version="1.0" encoding="utf-8"?>
<!-- Generator: Adobe Illustrator 21.0.0, SVG Export Plug-In . SVG Version: 6.00 Build 0)  -->
<svg version="1.1" id="Réteg_1" xmlns="http://www.w3.org/2000/svg" xmlns:xlink="http://www.w3.org/1999/xlink" x="0px" y="0px"
	 viewBox="0 0 1417.3 1417.3" style="enable-background:new 0 0 1417.3 1417.3;" xml:space="preserve">
<style type="text/css">
	.st0{fill:#FFFFFF;}
	.st1{fill:#383E42;}
</style>
<g id="logo_3_">
	<path class="st0" d="M533.9,694.5c-4.4,6.8-8.8,13.6-12.9,20.6c-0.2,0.7-0.4,0.9-0.7,1.3c-2,3.3-3.7,6.6-5.7,9.9
		c-2.2,3.7-4.2,7.4-6.3,11.4c-21.2,39.4-38.5,80.6-51.9,123.7c-11.8,38.3-20.4,77.9-25.6,119.1c-0.2,2-0.4,3.7-0.7,5.7h28.9
		c0.7-2,1.1-3.7,1.8-5.7c15.5-52.3,44.2-99.4,85.8-141c2.4-2.2,4.8-4.6,7.2-7c0.4-0.4,1.1-1.1,1.8-1.8c1.1-0.9,2.2-2,3.3-3.1
		c1.5-1.3,2.8-2.4,4.2-3.7c-2.4-6.1-4.8-12.3-7.4-18.4c-0.4-0.9-0.9-2-1.3-2.8c-1.3,0.9-2.4,2-3.5,3.1c-0.7,0.4-1.3,0.9-1.8,1.5
		c-1.1,0.7-2,1.5-2.8,2.6c-5,4.4-10.1,9-14.9,14c-26.9,26.9-48.8,56-65.5,87.1c12.5-53.2,31.1-104,56.3-152.1
		c1.8-3.5,3.7-7,5.5-10.3c2.2-3.9,4.2-7.7,6.3-11.6c0-0.2,0-0.2,0-0.2l0,0h0.2l-0.2,0.2c3.5,6.1,6.8,12,10.1,18.4
		c5.5,10.1,10.5,20.6,15.3,30.9c1.3,2.8,2.6,5.9,3.9,8.8c3.1,7,6.1,14,9,21c14.2,35.5,25.4,72.2,33.5,110.3
		c3.7,17.7,6.8,35.9,9.2,54.1c0.2,2,0.4,3.7,0.9,5.7h21.9c-0.2-2-0.4-3.7-0.7-5.7c-5.3-40.7-13.8-80.1-25.4-118.2
		c-4.8-15.1-9.9-30.2-15.5-45.1c-2-5-3.9-10.1-5.9-14.9c-3.1-7-5.9-14-9-20.8c-9.4-20.6-19.9-40.9-31.3-60.9
		c-1.1-1.5-2.2-3.5-3.1-5.3c-3.9-6.6-8.1-13.1-12.3-19.7C534.4,695.2,534.1,695,533.9,694.5z"/>
	<path class="st0" d="M248.7,655.8c-1.3,6.8-2.4,13.6-3.7,20.1c-17.5,98.9-28.5,200.3-32.8,304.5c0,2,0,3.7-0.2,5.7h26.5
		c0.2-2,0.4-3.7,0.7-5.7c3.1-22.3,7.2-44.2,12.3-65.9c12.7-53.2,31.3-104,56.3-152.1c9.9,15.8,18.8,32,26.9,48.4
		c0.9,1.5,1.8,3.1,2.6,4.8c2.4,5.3,5,10.3,7.4,15.5c2.2,5.3,4.6,10.5,6.8,15.5c9.2,21.2,17.3,42.9,24.1,65
		c7,22.6,12.9,45.3,17.5,68.7c0.4,2,0.9,3.7,1.1,5.7h22.1c-0.2-2-0.7-3.7-0.9-5.7c-3.7-19.3-8.3-38.3-13.6-56.9
		c-4.2-15.3-9-30.2-14.2-45.1c-7.7-21-16.2-41.8-25.8-62c-3.3-6.8-6.6-13.6-9.9-20.1c-2.6-5-5.3-10.1-8.1-14.9
		c-4.6-8.8-9.4-17.1-14.4-25.4c-3.3-5.3-6.3-10.5-9.6-15.5c2-3.5,3.9-6.8,5.7-10.1c2.4-3.7,4.6-7.7,7-11.4c0.7-1.1,1.3-2,1.8-3.1
		c8.3-13.4,17.3-26.5,26.5-39.4c-1.5-9.9-3.5-19.7-5.5-29.6c-9.2,12-18,24.3-26.5,37c-2.8,4.4-5.9,8.8-8.8,13.1
		c0,0.2-0.2,0.4-0.4,0.9c0.4,0.2,0.7,0.7,0.9,1.3l-0.9-1.3c-4.4,7-8.8,13.8-12.7,20.6c-0.2,0.4-0.4,0.9-0.7,1.5
		c-2,3.1-3.9,6.3-5.7,9.9c-2.2,3.5-4.4,7.2-6.3,11.2c-21.5,39.4-38.7,80.8-51.9,123.5c5-56,12.3-111.4,21.5-165.7
		c0.9-6.6,2-12.9,3.3-19.3c0.4-3.3,1.1-6.3,1.8-9.4c0.2-2,0.7-3.7,0.9-5.7c1.8-9.6,3.7-19,5.5-28.7c5-25.2,10.5-50.4,16.4-75.1
		c-3.7-15.1-7.4-30.2-11.6-45.1c-8.3,32.4-16,65.2-22.8,98.5c-2,9-3.9,18.2-5.5,27.4c-0.7,2.2-1.1,4.6-1.5,7
		C249.6,651.2,249.1,653.4,248.7,655.8z"/>
	<path class="st0" d="M623.7,694.1h-22.1c5.3,33.7,12.9,66.5,22.5,98.3c4.8,15.3,9.9,30.2,15.5,44.9c2,5,3.9,10.1,6.1,15.3
		c2.8,6.8,5.7,13.6,8.8,20.4c9.4,20.8,19.9,41.2,31.3,61.1c1.1,1.5,2.2,3.3,3.1,5c-0.4,1.1-1.1,2-1.8,2.8
		c-8.3,13.4-17.1,26.5-26.5,39.6c-1.1,1.5-2.2,3.1-3.3,4.6h27.1c2.6-3.9,5.5-7.9,8.3-12c2.8-4.4,5.9-9.2,9.4-14.4
		c4.2-6.8,8.3-13.6,12.5-20.4c0.2-0.4,0.4-0.9,0.7-1.1c2-3.3,3.7-6.6,5.7-9.9c2.2-3.9,4.2-7.7,6.3-11.4
		c21.2-39.6,38.7-80.8,51.9-123.5c9.9-32.2,17.5-65.2,22.8-99.4h-22.5c-2.6,16.9-5.7,33.3-9.6,49.5
		c-12.5,53.2-31.3,103.8-56.3,151.9c-1.7,3.5-3.5,7-5.5,10.5c-2,3.9-4.2,7.7-6.3,11.6c-3.5-6.1-6.8-12.3-10.1-18.4l0,0
		c-0.2-0.4-0.4-0.7-0.7-1.1c-5-9.9-10.1-19.7-14.7-29.8c0-0.4-0.2-0.9-0.4-1.1c-1.1-2.6-2.4-5.3-3.5-7.9c-2.8-6.1-5.5-12.5-8.1-18.8
		c-0.2-0.9-0.4-1.5-0.7-2.2c-14.4-35.5-25.6-72.2-33.7-110.1c0-0.4,0-0.9-0.2-1.3C627.6,716.2,625.7,705.3,623.7,694.1z"/>
	<path class="st0" d="M868.9,694.5c-4.4,6.8-8.8,13.6-12.7,20.6c-0.4,0.7-0.7,0.9-0.9,1.3c-2,3.3-3.7,6.6-5.7,9.9
		c-2.2,3.7-4.4,7.4-6.3,11.4c-21.2,39.4-38.5,80.6-51.9,123.7c-11.8,38.3-20.4,77.9-25.6,119.1c-0.2,2-0.4,3.7-0.7,5.7H794
		c0.7-2,1.1-3.7,1.7-5.7c15.5-52.3,44.2-99.4,85.8-141c2.4-2.2,4.8-4.6,7.2-7c0.4-0.4,1.1-1.1,1.8-1.8c1.1-0.9,2.2-2,3.3-3.1
		c1.5-1.3,2.8-2.4,4.2-3.7c-2.4-6.1-4.8-12.3-7.4-18.4c-0.4-0.9-0.9-2-1.3-2.8c-1.3,0.9-2.4,2-3.5,3.1c-0.7,0.4-1.3,0.9-1.8,1.5
		c-1.1,0.7-2,1.5-2.8,2.6c-5.3,4.4-10.1,9-15.1,14c-26.7,26.9-48.6,56-65.2,87.1c12.5-53.2,31.3-104,56.3-152.1
		c1.8-3.5,3.5-7,5.5-10.3c2.2-3.9,4.2-7.7,6.3-11.6c3.5,6.1,7,12,10.1,18.4c5.5,10.1,10.5,20.6,15.3,30.9c1.3,2.8,2.6,5.9,3.9,8.8
		c3.1,7,6.1,14,9,21c14.2,35.5,25.4,72.2,33.5,110.3c1.1,5.5,2.2,11.2,3.3,16.6c2.4,12.5,4.4,25,5.9,37.4c0.2,2,0.4,3.7,0.9,5.7
		h21.9c-0.2-2-0.4-3.7-0.7-5.7c-1.7-12.5-3.5-25-5.9-37.4c-0.4-2.8-1.1-5.7-1.5-8.8c-4.8-24.5-10.7-48.6-18-72
		c-4.8-15.1-9.9-30.2-15.5-45.1c-2-5-3.9-10.1-5.9-14.9c-3.1-7-5.9-14-9-20.8c-9.4-20.6-19.9-40.9-31.3-60.9
		c-1.1-1.5-2.2-3.5-3.1-5.3c-3.9-6.6-8.1-13.1-12.3-19.7C869.3,695.2,869.1,695,868.9,694.5z"/>
	<path class="st1" d="M1166.4,641.8c-2-9.2-3.7-18.4-5.7-27.6c-13.8-67-30.9-132.7-50.8-197c-3.3-10.1-6.6-20.1-9.9-30.2
		c-0.7-2-1.3-3.9-1.7-5.7c-0.7,1.8-1.3,3.7-2,5.7c-3.3,9.9-6.3,19.9-9.6,29.8c-1.8,6.1-3.7,12.3-5.5,18.4
		c-6.1,19.7-11.6,39.6-17.1,59.5c4.2,14.2,7.9,28.7,11.6,43.3c5.5-21.5,10.9-42.5,17.1-63.7c1.7-6.6,3.7-13.1,5.5-19.5
		c17.5,59.1,32.4,119.5,44.7,180.8c1.8,9.6,3.7,19.3,5.5,28.9c6.6,35.5,12.3,71.1,17.1,107.3c1.1,8.1,2,16.2,3.1,24.1
		c2.8,23,5.3,46.4,7.4,69.8c1.7,19,3.3,38.3,4.6,57.8c0.2,6.3,0.7,12.9,1.1,19.5c0.7,12.5,1.3,25,2,37.4c0,2,0,3.7,0.2,5.7h21.7
		c-0.2-2-0.2-3.7-0.2-5.7c-0.7-12.5-1.1-25-1.8-37.4c-3.3-53.9-8.1-106.8-14.7-159.4c-0.9-7.7-2-15.5-3.1-23.4
		C1180.4,720.4,1173.8,681,1166.4,641.8z"/>
	<path class="st0" d="M1070.3,560.8c-3.7-15.1-7.7-30.2-11.6-45.1c-8.5,32.4-16,65.2-23,98.5c-1.8,9-3.7,18.2-5.5,27.4
		c-0.4,2.2-0.9,4.6-1.3,7c-0.4,2.6-0.9,4.8-1.3,7.2c-1.3,6.8-2.6,13.6-3.7,20.1c-15.5,86.9-25.8,176-31.1,267.1
		c-0.7,12.5-1.3,25-1.7,37.4c-0.2,2-0.2,3.7-0.2,5.7h26.5c0.2-2,0.4-3.7,0.7-5.7c1.8-12.5,3.7-25,6.1-37.4c2-9.4,3.9-19,6.1-28.5
		c12.5-53.2,31.3-104,56.3-152.1c9.6,15.8,18.6,32,26.9,48.4c0.7,1.5,1.5,3.1,2.4,4.8c2.6,5.3,5,10.3,7.4,15.5
		c2.4,5.3,4.6,10.5,7,15.5c9,21.2,17.1,42.9,24.1,65c3.1,10.3,6.1,20.8,9,31.3c3.1,12.5,5.9,25,8.5,37.4c0.2,2,0.7,3.7,1.1,5.7
		c0,0.2,0,0.4,0,0.7c0-0.2,0-0.4,0-0.7c0-2,0-3.7-0.2-5.7c-0.4-12.5-1.1-25-1.8-37.4c-0.4-4.4-0.7-8.8-0.9-13.1
		c-1.1-17.1-2.4-34.4-3.9-51.4c-7.4-21-16.2-41.8-25.6-62c-3.3-6.8-6.6-13.6-10.1-20.1c-2.6-5-5.3-10.1-7.9-14.9
		c-4.8-8.8-9.6-17.1-14.7-25.4c-3.1-5.3-6.3-10.5-9.6-15.5c2-3.5,3.9-6.8,5.9-10.1c2.2-3.7,4.6-7.7,7-11.4c0.4-1.1,1.1-2,1.8-3.1
		c8.3-13.4,17.1-26.5,26.5-39.4c-1.7-9.9-3.5-19.7-5.5-29.6c-9.2,12-18.2,24.3-26.5,37c-2.8,4.4-5.7,8.5-8.5,12.7
		c0,0.2-0.2,0.4-0.2,0.4l0.2-0.4c-5,7.9-9.4,15.1-13.4,21.9c-0.4,0.4-0.7,0.9-0.9,1.5c-2,3.1-3.7,6.3-5.7,9.9
		c-2.2,3.5-4.2,7.2-6.3,11.2c-21.2,39.4-38.5,80.8-51.9,123.5c5.3-56,12.3-111.4,21.5-165.7c1.1-6.6,2.2-12.9,3.3-19.3
		c0.7-3.3,1.3-6.3,1.8-9.4c0.4-2,0.7-3.7,1.1-5.7c1.8-9.6,3.5-19,5.5-28.7C1058.9,610.7,1064.4,585.5,1070.3,560.8z"/>
	<path class="st1" d="M907.6,1002.1v33.1h21.7v-13.8h4.4c5,0,8.8,0,10.9,0.4c2.4,0.2,4.6,0.7,6.6,1.3c2.2,0.7,5.9,2.2,11.6,4.8
		l15.5,7.2h26l-13.1-6.6c-5.3-2.4-9.4-4.4-12.3-5.3c-3.1-1.1-7-2-11.8-2.8c9.6-0.4,16.6-1.3,21.5-3.1c4.6-1.5,7-3.5,7-6.1
		c0-2-1.5-3.7-4.6-5c-3.3-1.5-7.4-2.6-12.5-3.3c-5.3-0.4-13.8-0.9-25.2-0.9H907.6z M962.1,1007.8c3.5,0.2,6.3,0.7,8.3,1.3
		c1.8,0.7,2.8,1.5,2.8,2.6c0,1.1-0.9,2-2.2,2.6c-1.5,0.7-3.5,1.1-6.1,1.3c-2.6,0.2-9.2,0.4-19.5,0.4h-16.2v-8.3h17.1
		C955.1,1007.8,960.4,1007.8,962.1,1007.8z"/>
	<path class="st1" d="M882.3,1035.2v-33.1h-21.7v33.1H882.3z"/>
	<path class="st1" d="M785.7,1007.8h51.9v-5.7h-73.8v33.1h21.9v-14h44.9v-5.7h-44.9V1007.8z"/>
	<path class="st1" d="M1100.8,1011.5c-0.2-3.1-3.9-5.5-10.7-7.2c-6.8-1.8-17.1-2.6-30.4-2.6c-8.3,0-15.3,0.2-21.2,1.1
		c-5.9,0.7-10.3,2-13.4,3.3c-3.3,1.5-4.8,3.1-4.8,4.8c0,2.4,3.3,4.6,10.1,6.6c4.6,1.3,12.7,2.4,24.5,3.3c9,0.7,14.9,1.1,17.3,1.3
		c3.7,0.4,6.3,0.9,7.9,1.5c1.5,0.4,2.2,1.1,2.2,2c0,1.1-1.7,2.2-5.3,3.3c-3.7,0.9-9,1.3-16,1.3c-6.6,0-11.8-0.7-15.5-1.5
		c-3.9-1.1-6.6-2.6-7.9-4.8l-21,0.7c1.3,3.7,5.7,6.6,12.9,8.3c7.4,2,17.7,2.8,31.3,2.8c9.4,0,17.3-0.4,23.4-1.1
		c6.3-0.9,11.2-2,14.7-3.7c2-0.9,3.5-2,4.4-3.1c0.4-0.9,0.7-1.5,0.7-2.2c0-0.9-0.2-1.7-0.7-2.4c-0.9-1.1-2-2-3.5-2.8
		c-2.8-1.5-6.8-2.6-11.8-3.3c-5.3-0.9-12.9-1.8-23.6-2.4c-10.5-0.9-17.3-1.5-19.9-2.2c-2.2-0.7-3.3-1.3-3.3-2c0-0.9,1.3-1.5,3.5-2.2
		c3.5-0.7,8.5-1.1,14.9-1.1c6.1,0,10.7,0.2,13.8,1.1c3.1,0.7,5,2,5.9,3.5L1100.8,1011.5z"/>
	<path class="st1" d="M1152.4,1007.8v27.4h21.7v-27.4h32v-5.7h-85.6v5.7H1152.4z"/>
	<path class="st0" d="M211.7,1002.1v33.1h21.7v-10.1l17.5-5.5l29.8,15.5h28L266,1015l40.5-12.9h-29.1l-44,14.7v-14.7H211.7z"/>
	<path class="st0" d="M397,1027.7l9.4,7.4h23.6l-43.1-33.1h-23l-41.8,33.1h23l9-7.4H397z M375.4,1009.8L390,1022h-29.3L375.4,1009.8
		z"/>
	<path class="st0" d="M451.5,1002.1h-25.4l39.4,19v14h21.7v-13.8l39.6-19.3h-25.2l-24.7,13.1L451.5,1002.1z"/>
	<path class="st0" d="M590,1002.1h-23l-42,33.1h23.2l8.8-7.4h43.1l9.4,7.4h23.6L590,1002.1z M563.8,1022l14.4-12.3l14.9,12.3H563.8z
		"/>
	<path class="st0" d="M672.7,1035.2v-10.1l17.5-5.5l29.6,15.5H748l-42.7-20.1l40.5-12.9h-29.3l-43.8,14.7v-14.7H651v33.1H672.7z"/>
</g>
</svg>
